<svg width="88" height="21" viewBox="0 0 88 21" fill="none" xmlns="http://www.w3.org/2000/svg">
<path fill-rule="evenodd" clip-rule="evenodd" d="M15.1614 0H18.6948L19.8364 16.0415H16.6215L15.9605 5.1532L10.807 16.0415H9.02832L3.87596 5.19657L3.21492 16.0415H0L1.1405 0H4.67398L9.91767 11.0607L15.1614 0ZM21.9087 20.6773L22.2272 18.2843C22.5012 18.4144 22.8209 18.4779 23.2079 18.4779C24.2114 18.4779 24.6213 17.896 25.0997 17.0126L25.7161 15.7833L20.4496 4.41899H23.8461L27.3122 12.6127L30.5499 4.41899H33.9236L28.133 17.3787C27.1524 19.6205 26.1043 21 23.733 21C23.0263 21 22.3642 20.8699 21.9087 20.6763V20.6773ZM44.685 2.60992H39.5315V16.0425H36.3177V2.60992H31.186V0.0856927H44.685V2.60992ZM54.5102 4.42111V16.0425H51.5236L51.4779 14.6196C50.5886 15.6987 49.2437 16.2594 47.6933 16.2594C44.9122 16.2594 43.0193 14.4472 43.0193 11.7092V4.41899H46.1201V11.2554C46.1201 12.7428 47.191 13.7341 48.7871 13.7341C50.3603 13.7341 51.4094 12.7428 51.4094 11.2554V4.42005H54.5102V4.42111ZM64.9737 13.348V15.7188C64.0386 16.0859 62.9449 16.2583 61.8501 16.2583C59.593 16.2583 58.0665 14.792 58.0665 12.5926V6.81416H56.0356V4.41899H58.0643V1.01244H61.1651V4.41899H64.791V6.8131H61.1651V11.9864C61.1651 13.0443 61.8501 13.7341 62.8525 13.7341C63.5592 13.7341 64.2659 13.6262 64.9726 13.3458L64.9737 13.348ZM75.7111 10.2218C75.7111 8.10801 74.3662 6.70731 72.3592 6.70731C70.3304 6.70731 68.9855 8.10801 68.9855 10.2218C68.9855 12.3345 70.3304 13.7352 72.3592 13.7352C74.3662 13.7352 75.7111 12.3345 75.7111 10.2218ZM65.7706 10.2218C65.7706 6.62055 68.4158 4.20635 72.3592 4.20635C76.2819 4.20635 78.926 6.62055 78.926 10.2218C78.926 13.8441 76.2819 16.2583 72.3592 16.2583C68.4158 16.2583 65.7706 13.8441 65.7706 10.2218ZM88 4.20529L87.7934 6.89985C85.2406 6.89985 83.5533 8.06358 83.5533 9.81023V16.0415H80.4525V4.42005H83.4391L83.4858 5.97204C84.4654 4.82947 86.0158 4.20529 88 4.20529Z" fill="#232323"/>
</svg>
